<svg xmlns="http://www.w3.org/2000/svg" width="28.981" height="29.129" viewBox="0 0 28.981 29.129">
  <g id="np_calendar_1011978_000000" transform="translate(-5.225 -5)">
    <path id="Path_713" data-name="Path 713" d="M9.827,34.129H29.6a4.607,4.607,0,0,0,4.6-4.6V12.137a4.607,4.607,0,0,0-4.6-4.6h-.731V5.918a.918.918,0,1,0-1.836,0V7.535H23.382V5.918a.918.918,0,0,0-1.836,0V7.535H17.887V5.918a.918.918,0,1,0-1.836,0V7.535H12.394V5.918a.918.918,0,1,0-1.836,0V7.535H9.827a4.607,4.607,0,0,0-4.6,4.6v17.39a4.608,4.608,0,0,0,4.6,4.6ZM7.269,12.137A2.562,2.562,0,0,1,9.827,9.578h.731v1.6a.918.918,0,1,0,1.836,0v-1.6h3.658v1.6a.918.918,0,1,0,1.836,0v-1.6h3.658v1.6a.918.918,0,1,0,1.836,0v-1.6h3.658v1.6a.918.918,0,1,0,1.836,0v-1.6H29.6a2.562,2.562,0,0,1,2.559,2.559v17.39A2.562,2.562,0,0,1,29.6,32.086H9.828a2.562,2.562,0,0,1-2.559-2.559Z" transform="translate(0 0)" fill="#fff"/>
    <path id="Path_714" data-name="Path 714" d="M23.559,35.246h3.18v2.831h-3.18Z" transform="translate(-12.4 -20.457)" fill="#fff"/>
    <path id="Path_715" data-name="Path 715" d="M45.09,35.246h3.18v2.831H45.09Z" transform="translate(-26.962 -20.457)" fill="#fff"/>
    <path id="Path_716" data-name="Path 716" d="M66.617,35.246H69.8v2.831h-3.18Z" transform="translate(-41.522 -20.457)" fill="#fff"/>
    <path id="Path_717" data-name="Path 717" d="M23.559,51.789h3.18V54.62h-3.18Z" transform="translate(-12.4 -31.645)" fill="#fff"/>
    <path id="Path_718" data-name="Path 718" d="M45.09,51.789h3.18V54.62H45.09Z" transform="translate(-26.962 -31.645)" fill="#fff"/>
    <path id="Path_719" data-name="Path 719" d="M66.617,51.789H69.8V54.62h-3.18Z" transform="translate(-41.522 -31.645)" fill="#fff"/>
    <path id="Path_720" data-name="Path 720" d="M23.559,68.328h3.18v2.831h-3.18Z" transform="translate(-12.4 -42.832)" fill="#fff"/>
    <path id="Path_721" data-name="Path 721" d="M45.09,68.328h3.18v2.831H45.09Z" transform="translate(-26.962 -42.832)" fill="#fff"/>
  </g>
</svg>
