<svg xmlns="http://www.w3.org/2000/svg" width="30.65" height="28.436" viewBox="0 0 30.65 28.436">
  <g id="Group_335" data-name="Group 335" transform="translate(-322 -343)">
    <path id="Path_404" data-name="Path 404" d="M15.592,30.218a.79.79,0,1,0,0-1.58H3.51a.43.43,0,0,1-.43-.43V12.554H27.386v4.29a.79.79,0,1,0,1.58,0V7.006A2.009,2.009,0,0,0,26.957,5H3.51A2.009,2.009,0,0,0,1.5,7.006v21.2A2.009,2.009,0,0,0,3.51,30.218ZM3.51,6.579H26.957a.43.43,0,0,1,.429.429v3.965H3.08V7.006a.429.429,0,0,1,.43-.427Z" transform="translate(320.499 338.001)" fill="#fff"/>
    <path id="Path_405" data-name="Path 405" d="M78.969,69.908l-7.2-2.644a.79.79,0,0,0-1.014,1.013l2.645,7.2h0a.79.79,0,0,0,.685.515h.057a.79.79,0,0,0,.7-.417l1.09-2.029,1.95,1.95h0a.791.791,0,1,0,1.119-1.118l-1.95-1.95,2.029-1.09a.79.79,0,0,0-.1-1.438Zm-4.695,3.376-1.45-3.949,3.949,1.45-1.416.762a.779.779,0,0,0-.316.316Z" transform="translate(273.159 295.442)" fill="#fff"/>
    <path id="Path_406" data-name="Path 406" d="M88.125,54.721l-1.318,1.317a.792.792,0,0,0,1.119,1.119l1.311-1.321a.791.791,0,0,0-1.118-1.119Z" transform="translate(262.303 304.149)" fill="#fff"/>
    <path id="Path_407" data-name="Path 407" d="M58.782,85.975a.79.79,0,0,0,.56-.231l1.318-1.318h0a.791.791,0,1,0-1.118-1.119l-1.314,1.324a.79.79,0,0,0,.559,1.349Z" transform="translate(281.854 284.592)" fill="#fff"/>
    <path id="Path_408" data-name="Path 408" d="M60.654,56.046l-1.318-1.318h0a.791.791,0,1,0-1.119,1.118l1.318,1.318a.791.791,0,0,0,1.118-1.119Z" transform="translate(281.86 304.141)" fill="#fff"/>
    <path id="Path_409" data-name="Path 409" d="M74.371,48.5v1.861a.79.79,0,1,0,1.58,0V48.5a.79.79,0,0,0-1.58,0Z" transform="translate(270.652 308.784)" fill="#fff"/>
    <path id="Path_410" data-name="Path 410" d="M54.652,71.661a.79.79,0,0,0-.79-.79H52a.79.79,0,1,0,0,1.58h1.861a.792.792,0,0,0,.79-.79Z" transform="translate(286.494 292.941)" fill="#fff"/>
    <path id="Path_411" data-name="Path 411" d="M33.447,37.4a.79.79,0,0,0-.79-.79H15.349a.791.791,0,0,0-.79.79v9.669a.792.792,0,0,0,.79.79H23.5a.79.79,0,1,0,0-1.58H16.139V38.189H32.657a.788.788,0,0,0,.79-.79Z" transform="translate(311.567 316.378)" fill="#fff"/>
    <path id="Path_412" data-name="Path 412" d="M13.012,15.4a.881.881,0,1,1-1.762,0,.881.881,0,1,1,1.762,0" transform="translate(313.83 331.488)" fill="#fff"/>
    <path id="Path_413" data-name="Path 413" d="M22.543,15.4a.881.881,0,1,1-1.762,0,.881.881,0,1,1,1.762,0" transform="translate(307.31 331.488)" fill="#fff"/>
    <path id="Path_414" data-name="Path 414" d="M32.063,15.4a.881.881,0,1,1-1.762,0,.881.881,0,1,1,1.762,0" transform="translate(300.798 331.488)" fill="#fff"/>
  </g>
</svg>
