<svg xmlns="http://www.w3.org/2000/svg" width="228" height="34.301" viewBox="0 0 228 34.301">
  <g id="Group_98" data-name="Group 98" transform="translate(-205 -605)">
    <g id="credit-cards_amex" transform="translate(384.575 605)">
      <path id="Path_260" data-name="Path 260" d="M2.018,0H46.407a2.024,2.024,0,0,1,2.018,2.018V32.283A2.024,2.024,0,0,1,46.407,34.3H2.018A2.024,2.024,0,0,1,0,32.283V2.018A2.024,2.024,0,0,1,2.018,0Z" fill="#2aa0d0"/>
      <path id="Path_261" data-name="Path 261" d="M39.5,25.95H33.451a.5.5,0,0,0-.5.454.5.5,0,0,0-.5-.454H29.516a.441.441,0,0,0-.454.3l-1.614,4.035L25.43,26.2a.58.58,0,0,0-.454-.3H22.353a.477.477,0,0,0-.5.5v4.742L19.629,26.2a.485.485,0,0,0-.454-.3H16.5a.485.485,0,0,0-.454.3l-3.481,7.566a.6.6,0,0,0,.05.5.514.514,0,0,0,.4.252H15.19a.441.441,0,0,0,.454-.3l.757-1.715h2.774l.706,1.715a.485.485,0,0,0,.454.3h4.035a.477.477,0,0,0,.5-.5V31.146l1.261,3.077a.485.485,0,0,0,.454.3h1.564a.441.441,0,0,0,.454-.3L29.92,31.1v2.926a.477.477,0,0,0,.5.5h2.018a.5.5,0,0,0,.5-.454.5.5,0,0,0,.5.454H39.5a.477.477,0,0,0,.5-.5V32.508a.477.477,0,0,0-.5-.5H35.973v-.5H39.4a.477.477,0,0,0,.5-.5V29.481a.477.477,0,0,0-.5-.5h-3.43v-.5H39.5a.477.477,0,0,0,.5-.5V26.455A.542.542,0,0,0,39.5,25.95ZM17.359,29.986l.454-1.009.454,1.009Z" transform="translate(-6.212 -12.835)" fill="#2aa0d0"/>
      <path id="Path_262" data-name="Path 262" d="M74.919,32.507,72.9,30.338l2.018-2.169a.458.458,0,0,0,.151-.353V26.5a.517.517,0,0,0-.5-.5H73.2a.573.573,0,0,0-.4.151L71.035,28.27,69.219,26.2a.381.381,0,0,0-.353-.2H67.5a.477.477,0,0,0-.5.5v7.566a.477.477,0,0,0,.5.5h1.211a.458.458,0,0,0,.353-.151l1.917-2.018L72.9,34.424a.545.545,0,0,0,.353.151h1.312a.517.517,0,0,0,.5-.5V32.86A.458.458,0,0,0,74.919,32.507Zm-6.911-.958V29.077l1.16,1.211Z" transform="translate(-33.204 -12.885)" fill="#2aa0d0"/>
      <path id="Path_263" data-name="Path 263" d="M20.6,32.324h2.421L21.811,29.6Z" transform="translate(-10.209 -14.669)" fill="#fff"/>
      <path id="Path_264" data-name="Path 264" d="M68,34.644l2.371-2.522L68,29.6Z" transform="translate(-33.699 -14.669)" fill="#fff"/>
      <path id="Path_265" data-name="Path 265" d="M47.828,31.658l-1.715-1.816,1.715-1.816a1.205,1.205,0,0,0,.252-.706V26.009A1.034,1.034,0,0,0,47.071,25H45.709a.908.908,0,0,0-.757.353L43.54,26.967l-1.412-1.614A1.073,1.073,0,0,0,41.371,25H40.009a.852.852,0,0,0-.5.151A.852.852,0,0,0,39,25H32.947a.852.852,0,0,0-.5.151.852.852,0,0,0-.5-.151H29.013a1.034,1.034,0,0,0-.958.656l-1.211,3.027-1.513-3.077a.953.953,0,0,0-.908-.555H21.85a1.012,1.012,0,0,0-1.009,1.009V28.43L19.58,25.656a1,1,0,0,0-.908-.605H16a1,1,0,0,0-.908.605L11.61,33.222a1.072,1.072,0,0,0,.05.958.991.991,0,0,0,.858.454h2.169a1,1,0,0,0,.908-.605l.605-1.412h2.119l.555,1.412a.986.986,0,0,0,.958.656h4.035a1.012,1.012,0,0,0,1.009-1.009v-.353l.3.757a1,1,0,0,0,.908.605h1.564a1.13,1.13,0,0,0,.958-.605l.3-.757v.252a1.012,1.012,0,0,0,1.009,1.009h2.018a.852.852,0,0,0,.5-.151.852.852,0,0,0,.5.151H39a.852.852,0,0,0,.5-.151.852.852,0,0,0,.5.151H41.22a1.112,1.112,0,0,0,.757-.3l1.564-1.665L45.1,34.281a1.027,1.027,0,0,0,.757.3h1.211a1.034,1.034,0,0,0,1.009-1.009V32.365A1.205,1.205,0,0,0,47.828,31.658ZM31.939,33.575H29.921v-5.5l-2.27,5.5H26.087l-2.219-5.448v5.448H19.832l-.807-2.018H15.6l-.858,2.018H12.569l3.481-7.566h2.673L21.9,33.071V26.009h2.573L27,31.1l2.018-5.095h2.926ZM39,27.522H34.965v1.513H38.9v1.513H34.965v1.513H39v1.513H32.947V26.009H39Zm6.86,6.053-2.32-2.421-2.32,2.421H40.009V26.009h1.362l2.169,2.522,2.169-2.522h1.362V27.32L44.7,29.842l2.371,2.522v1.211Z" transform="translate(-5.708 -12.389)" fill="#fff"/>
      <path id="Path_266" data-name="Path 266" d="M2.018,34.3h.908l45.5-31.375V2.018A2.024,2.024,0,0,0,46.407,0H2.018A2.024,2.024,0,0,0,0,2.018V32.283A2.024,2.024,0,0,0,2.018,34.3Z" fill="#fff" opacity="0.05"/>
    </g>
    <g id="credit-cards_discover" transform="translate(324.549 605)">
      <path id="Path_277" data-name="Path 277" d="M2.018,0H46.407a2.024,2.024,0,0,1,2.018,2.018V32.283A2.024,2.024,0,0,1,46.407,34.3H2.018A2.024,2.024,0,0,1,0,32.283V2.018A2.024,2.024,0,0,1,2.018,0Z" fill="#f7e8d7"/>
      <path id="Path_278" data-name="Path 278" d="M58.386,46.4v8.878A2.024,2.024,0,0,1,56.368,57.3H20.1C37.654,55.681,49.508,51.545,58.386,46.4Z" transform="translate(-9.961 -22.995)" fill="#f48221"/>
      <path id="Path_279" data-name="Path 279" d="M48.805,34.348H47.494l-1.513-2.119h-.151v2.119H44.77v-5.3h1.614c1.261,0,1.967.555,1.967,1.564a1.439,1.439,0,0,1-1.261,1.513Zm-1.614-3.682c0-.5-.353-.807-1.059-.807h-.353v1.614h.3C46.838,31.523,47.191,31.22,47.191,30.665Zm-6.2-1.614h3.077v.908H42.1v1.16h1.917v.908H42.1V33.49h1.967V34.4H40.987ZM37.506,34.5l-2.371-5.448H36.3l1.463,3.581,1.513-3.581h1.16L38.061,34.5Zm-9.836,0a2.8,2.8,0,0,1-2.926-2.774A2.88,2.88,0,0,1,27.72,28.95a3.107,3.107,0,0,1,1.312.3v1.211a1.969,1.969,0,0,0-1.362-.605,1.808,1.808,0,0,0-1.816,1.816A1.762,1.762,0,0,0,27.72,33.49a1.8,1.8,0,0,0,1.312-.555v1.211A2.884,2.884,0,0,1,27.67,34.5Zm-3.279-1.765a1.756,1.756,0,0,1-1.917,1.715,2.185,2.185,0,0,1-1.917-1.009l.706-.656a1.282,1.282,0,0,0,1.16.706.772.772,0,0,0,.858-.757.7.7,0,0,0-.3-.555,5.25,5.25,0,0,0-.757-.3c-1.009-.353-1.362-.706-1.362-1.463A1.6,1.6,0,0,1,22.575,28.9a2.379,2.379,0,0,1,1.614.605l-.555.706a1.134,1.134,0,0,0-.858-.4c-.454,0-.807.252-.807.605,0,.3.2.454.858.656C24.038,31.523,24.391,31.927,24.391,32.734Zm-5.3-3.682h1.059v5.3H19.095Zm-3.531,5.3H14v-5.3h1.614a2.712,2.712,0,0,1,2.976,2.673,2.556,2.556,0,0,1-1.009,2.018A2.924,2.924,0,0,1,15.564,34.348Zm1.312-3.935a1.953,1.953,0,0,0-1.513-.454h-.3V33.49h.3a2.2,2.2,0,0,0,1.463-.4,1.792,1.792,0,0,0,.605-1.312A1.623,1.623,0,0,0,16.875,30.413Z" transform="translate(-6.938 -14.322)" fill="#190f04"/>
      <path id="Path_280" data-name="Path 280" d="M47.576,29A2.871,2.871,0,0,0,44.6,31.724,2.787,2.787,0,0,0,47.576,34.5a2.758,2.758,0,1,0,0-5.5Z" transform="translate(-22.103 -14.372)" fill="#f48221"/>
      <path id="Path_281" data-name="Path 281" d="M2.018,34.3A2.024,2.024,0,0,1,0,32.283V2.018A2.024,2.024,0,0,1,2.018,0H46.407a2.024,2.024,0,0,1,2.018,2.018" fill="#fff" opacity="0.2"/>
    </g>
    <g id="credit-cards_mastercard" transform="translate(265.027 605)">
      <path id="Path_287" data-name="Path 287" d="M2.018,0H46.407a2.024,2.024,0,0,1,2.018,2.018V32.283A2.024,2.024,0,0,1,46.407,34.3H2.018A2.024,2.024,0,0,1,0,32.283V2.018A2.024,2.024,0,0,1,2.018,0Z" fill="#4361c3"/>
      <path id="Path_288" data-name="Path 288" d="M52.314,20A7.314,7.314,0,1,1,45,27.314,7.319,7.319,0,0,1,52.314,20Z" transform="translate(-22.301 -9.912)" fill="#ffaf38"/>
      <rect id="Rectangle_800" data-name="Rectangle 800" width="5.044" height="1.009" transform="translate(23.708 13.619)" fill="#ffaf38"/>
      <path id="Path_289" data-name="Path 289" d="M29.314,34.628a7.314,7.314,0,1,1,7.314-7.314A7.319,7.319,0,0,1,29.314,34.628Z" transform="translate(-10.903 -9.912)" fill="#eb3636"/>
      <path id="Path_290" data-name="Path 290" d="M46.5,34.062V33.053h6.558v1.009ZM46.5,27h6.558v1.009H46.5Zm6.053,3.027H46V29.018h6.558Zm0,2.018H46V31.035h6.558Z" transform="translate(-22.796 -13.381)" fill="#ffaf38"/>
      <path id="Path_291" data-name="Path 291" d="M2.018,34.3h.908l45.5-31.375V2.018A2.024,2.024,0,0,0,46.407,0H2.018A2.024,2.024,0,0,0,0,2.018V32.283A2.024,2.024,0,0,0,2.018,34.3Z" fill="#fff" opacity="0.05"/>
    </g>
    <g id="credit-cards_visa" transform="translate(205 605)">
      <rect id="Rectangle_801" data-name="Rectangle 801" width="48.425" height="16.142" transform="translate(0 9.08)" fill="#f9f9f9"/>
      <path id="Path_296" data-name="Path 296" d="M2.018,0H46.407a2.024,2.024,0,0,1,2.018,2.018V9.08H0V2.018A2.024,2.024,0,0,1,2.018,0Z" fill="#09599e"/>
      <path id="Path_297" data-name="Path 297" d="M0,50H48.425v7.062a2.024,2.024,0,0,1-2.018,2.018H2.018A2.024,2.024,0,0,1,0,57.062Z" transform="translate(0 -24.779)" fill="#e59703"/>
      <path id="Path_298" data-name="Path 298" d="M2.018,34.25A2.024,2.024,0,0,1,0,32.233V2.018A2.024,2.024,0,0,1,2.018,0H46.407a2.024,2.024,0,0,1,2.018,2.018" fill="#fff" opacity="0.05"/>
      <g id="Group_97" data-name="Group 97" transform="translate(8.575 12.762)">
        <path id="Path_299" data-name="Path 299" d="M37.1,34.025,38.563,25.5h2.32L39.42,34.025Z" transform="translate(-26.961 -25.399)" fill="#00589f"/>
        <path id="Path_300" data-name="Path 300" d="M51.561,25.653a6.4,6.4,0,0,0-2.068-.353c-2.32,0-3.935,1.16-3.935,2.825,0,1.211,1.16,1.917,2.018,2.32.908.4,1.211.706,1.211,1.059,0,.555-.706.858-1.412.858a5.059,5.059,0,0,1-2.169-.454l-.3-.2-.3,1.917a6.921,6.921,0,0,0,2.573.454c2.421,0,4.035-1.16,4.035-2.926,0-.958-.605-1.715-1.967-2.32-.807-.4-1.312-.656-1.312-1.059,0-.353.4-.757,1.312-.757a4.754,4.754,0,0,1,1.715.3l.2.1.4-1.765" transform="translate(-30.678 -25.3)" fill="#00589f"/>
        <path id="Path_301" data-name="Path 301" d="M63.857,25.6H62.041a1.155,1.155,0,0,0-1.211.706L57.4,34.125h2.421s.4-1.059.5-1.261H63.3c.05.3.3,1.261.3,1.261h2.169L63.857,25.6m-2.875,5.448c.2-.5.908-2.371.908-2.371s.2-.5.3-.807l.151.757s.454,2.018.555,2.472H60.981Z" transform="translate(-37.021 -25.449)" fill="#00589f"/>
        <path id="Path_302" data-name="Path 302" d="M27.55,25.55l-2.27,5.8-.252-1.16A6.714,6.714,0,0,0,21.8,26.61l2.119,7.415H26.39L30.073,25.5H27.55" transform="translate(-19.379 -25.399)" fill="#00589f"/>
        <path id="Path_303" data-name="Path 303" d="M20.783,25.5H17.05l-.05.2a7.74,7.74,0,0,1,5.65,4.439l-.807-3.884c-.1-.555-.555-.706-1.059-.757" transform="translate(-17 -25.399)" fill="#f9a51a"/>
      </g>
    </g>
  </g>
</svg>
