<svg id="Group_341" data-name="Group 341" xmlns="http://www.w3.org/2000/svg" width="25.716" height="26.534" viewBox="0 0 25.716 26.534">
  <path id="Path_679" data-name="Path 679" d="M25.716-157.428a21.245,21.245,0,0,1-3.32,5.9,6.335,6.335,0,0,1-3.365,2.259,19.551,19.551,0,0,1-2.478.212,5.762,5.762,0,0,0-1.879.469c-.342.182-.422.745-.5,1.085a25.723,25.723,0,0,0-.2,4.751c-.271,0-.542,0-.815,0,.138-2.522.3-5.042.431-7.563a8.975,8.975,0,0,1,.613-3.451,5.661,5.661,0,0,1,3.644-3.42A18.036,18.036,0,0,1,25.716-157.428Zm-18.7.008a5.982,5.982,0,0,1,3.594,2.074,8.006,8.006,0,0,1,1.522,5A7.468,7.468,0,0,1,6.589-149.3a6.416,6.416,0,0,1-3.331-2.3A21.512,21.512,0,0,1,0-157.437,19.849,19.849,0,0,1,7.019-157.42ZM12.7-169.29a2.882,2.882,0,0,1,.359.373,21.218,21.218,0,0,1,3.089,5.216,6.706,6.706,0,0,1,.412,4.13,7.667,7.667,0,0,1-3.624,4.414,9.389,9.389,0,0,1-2.514-2.042,5.867,5.867,0,0,1-1.44-3.464,9.142,9.142,0,0,1,.912-4.006A22.97,22.97,0,0,1,12.7-169.29Z" transform="translate(0 169.29)" fill="#fff" fill-rule="evenodd"/>
</svg>
