<svg xmlns="http://www.w3.org/2000/svg" width="53.602" height="53.602" viewBox="0 0 53.602 53.602">
  <g id="Group_273" data-name="Group 273" transform="translate(-76 -151)">
    <circle id="Ellipse_33" data-name="Ellipse 33" cx="26.801" cy="26.801" r="26.801" transform="translate(76 151)" fill="#ff5725"/>
    <path id="Path_312" data-name="Path 312" d="M233.745,264.682h-8.251v-3.927a2.309,2.309,0,0,0-2.307-2.307H208.622a2.309,2.309,0,0,0-2.307,2.307V275.8a1.438,1.438,0,0,0,2.456,1.017l3.315-3.315h4.788v3.927a2.309,2.309,0,0,0,2.307,2.307h11.1l3.315,3.315a1.439,1.439,0,0,0,2.457-1.017V266.989a2.309,2.309,0,0,0-2.307-2.307Zm-16.872,2.307v4.493h-5.027a1.433,1.433,0,0,0-1.017.421l-2.5,2.5V260.755a.29.29,0,0,1,.29-.289h14.563a.29.29,0,0,1,.289.289v3.927h-4.293a2.31,2.31,0,0,0-2.308,2.307Zm6.6-.289v4.493a.29.29,0,0,1-.289.29h-4.3v-4.493a.29.29,0,0,1,.29-.289Zm10.559,13.934-2.5-2.5a1.433,1.433,0,0,0-1.017-.421H219.182a.29.29,0,0,1-.29-.29V273.5h4.294a2.309,2.309,0,0,0,2.307-2.307V266.7h8.251a.29.29,0,0,1,.289.289Z" transform="translate(-118.382 -92.501)" fill="#fff"/>
  </g>
</svg>
