<svg id="iconfinder_38-instagram_1161954" xmlns="http://www.w3.org/2000/svg" width="28.696" height="28.695" viewBox="0 0 28.696 28.695">
  <ellipse id="Ellipse_51" data-name="Ellipse 51" cx="2.566" cy="2.566" rx="2.566" ry="2.566" transform="translate(11.665 11.898)" fill="#fff"/>
  <path id="Path_681" data-name="Path 681" d="M26.807,19.2H20.391a3.187,3.187,0,0,0-2.275.817,3.187,3.187,0,0,0-.817,2.275v6.416a3.215,3.215,0,0,0,.875,2.333,3.288,3.288,0,0,0,2.275.817h6.357a3.187,3.187,0,0,0,2.275-.817,2.988,2.988,0,0,0,.875-2.275V22.349a3.288,3.288,0,0,0-.817-2.275A3.123,3.123,0,0,0,26.807,19.2ZM23.6,29.465a3.966,3.966,0,1,1,0-7.932,3.966,3.966,0,1,1,0,7.932Zm4.141-7.174a.933.933,0,1,1,.933-.933A.921.921,0,0,1,27.74,22.291Z" transform="translate(-9.368 -11.035)" fill="#fff"/>
  <path id="Path_682" data-name="Path 682" d="M18.048,5.2A14.348,14.348,0,1,0,32.4,19.548,14.337,14.337,0,0,0,18.048,5.2Zm7.641,17.73a4.623,4.623,0,0,1-1.283,3.324,4.539,4.539,0,0,1-3.266,1.225H14.782a4.539,4.539,0,0,1-3.266-1.225,4.394,4.394,0,0,1-1.283-3.324V16.515a4.316,4.316,0,0,1,4.549-4.549H21.2a4.3,4.3,0,0,1,4.491,4.549Z" transform="translate(-3.7 -5.2)" fill="#fff"/>
</svg>
