<svg xmlns="http://www.w3.org/2000/svg" width="150.466" height="30.527" viewBox="0 0 150.466 30.527">
  <g id="Add_Builder_Logo_4" data-name="Add Builder Logo 4" transform="translate(0 0)">
    <path id="Path_304" data-name="Path 304" d="M1215.182,283.563H1208.6l-1.256,3.039h-3.363l6.321-14.182h3.242l6.341,14.182h-3.444Zm-1.033-2.492-2.249-5.43-2.249,5.43Z" transform="translate(-1164.321 -263.447)" fill="#fff"/>
    <path id="Path_305" data-name="Path 305" d="M1704.363,246.588V261.62h-3.019v-1.256a4.168,4.168,0,0,1-3.4,1.418,5.659,5.659,0,0,1-2.786-.689,4.932,4.932,0,0,1-1.955-1.965,6.524,6.524,0,0,1,0-5.916,4.932,4.932,0,0,1,1.955-1.965,5.66,5.66,0,0,1,2.786-.689,4.146,4.146,0,0,1,3.262,1.317v-5.288Zm-5.875,12.6a2.641,2.641,0,0,0,1.985-.82,3.453,3.453,0,0,0,0-4.4,2.837,2.837,0,0,0-3.991,0,3.453,3.453,0,0,0,0,4.4A2.665,2.665,0,0,0,1698.488,259.189Z" transform="translate(-1636.743 -238.466)" fill="#fff"/>
    <path id="Path_306" data-name="Path 306" d="M2338.74,279.227a3.739,3.739,0,0,1,1.9,1.286,3.546,3.546,0,0,1,.689,2.218,3.278,3.278,0,0,1-1.448,2.867,7.4,7.4,0,0,1-4.224,1h-7.334V272.42h6.929a6.783,6.783,0,0,1,3.981.993,3.142,3.142,0,0,1,1.388,2.694,3.408,3.408,0,0,1-1.884,3.12Zm-7.152-4.336v3.343h3.262a3.293,3.293,0,0,0,1.844-.425,1.419,1.419,0,0,0,.628-1.256,1.394,1.394,0,0,0-.628-1.246,3.357,3.357,0,0,0-1.844-.415Zm3.829,9.238a3.637,3.637,0,0,0,1.955-.425,1.457,1.457,0,0,0,.658-1.317q0-1.763-2.614-1.763h-3.829v3.5Z" transform="translate(-2251.634 -263.447)" fill="#fff"/>
    <path id="Path_307" data-name="Path 307" d="M2789.28,372.061v10.9h-3v-1.3a4.194,4.194,0,0,1-1.5,1.084,4.717,4.717,0,0,1-1.884.375,4.642,4.642,0,0,1-3.4-1.236,4.926,4.926,0,0,1-1.256-3.667v-6.159h3.161v5.693q0,2.634,2.208,2.634a2.374,2.374,0,0,0,1.823-.739,3.12,3.12,0,0,0,.689-2.2v-5.389Z" transform="translate(-2686.728 -359.806)" fill="#fff"/>
    <path id="Path_308" data-name="Path 308" d="M3191.328,223.955h3.161v10.9h-3.161Zm1.58-1.519a2,2,0,0,1-1.418-.507,1.716,1.716,0,0,1,0-2.512,2,2,0,0,1,1.418-.506,2.053,2.053,0,0,1,1.418.486,1.559,1.559,0,0,1,.547,1.216,1.72,1.72,0,0,1-.547,1.307A1.98,1.98,0,0,1,3192.908,222.435Z" transform="translate(-3085.838 -211.699)" fill="#fff"/>
    <rect id="Rectangle_802" data-name="Rectangle 802" width="3.16" height="15.032" transform="translate(111.588 8.122)" fill="#fff"/>
    <path id="Path_309" data-name="Path 309" d="M3555.4,246.588V261.62h-3.019v-1.256a4.168,4.168,0,0,1-3.4,1.418,5.659,5.659,0,0,1-2.786-.689,4.935,4.935,0,0,1-1.955-1.965,6.525,6.525,0,0,1,0-5.916,4.935,4.935,0,0,1,1.955-1.965,5.66,5.66,0,0,1,2.786-.689,4.146,4.146,0,0,1,3.262,1.317v-5.288Zm-5.875,12.6a2.64,2.64,0,0,0,1.985-.82,3.451,3.451,0,0,0,0-4.4,2.836,2.836,0,0,0-3.991,0,3.453,3.453,0,0,0,0,4.4A2.665,2.665,0,0,0,3549.528,259.189Z" transform="translate(-3426.812 -238.466)" fill="#fff"/>
    <path id="Path_310" data-name="Path 310" d="M3967.415,372.793q0,.061-.061.851h-8.246a2.567,2.567,0,0,0,1.053,1.6,3.489,3.489,0,0,0,2.066.588,4.184,4.184,0,0,0,1.509-.253,3.657,3.657,0,0,0,1.226-.8l1.681,1.823a5.651,5.651,0,0,1-4.5,1.763,7.114,7.114,0,0,1-3.262-.719,5.27,5.27,0,0,1-2.188-2,5.5,5.5,0,0,1-.77-2.9,5.569,5.569,0,0,1,.76-2.887,5.323,5.323,0,0,1,2.087-2.006,6.46,6.46,0,0,1,5.865-.03,5.028,5.028,0,0,1,2.036,1.975,5.891,5.891,0,0,1,.739,2.988Zm-5.652-3.262a2.721,2.721,0,0,0-1.8.608,2.587,2.587,0,0,0-.891,1.661h5.369a2.613,2.613,0,0,0-.891-1.651A2.665,2.665,0,0,0,3961.762,369.532Z" transform="translate(-3825.625 -355.048)" fill="#fff"/>
    <path id="Path_311" data-name="Path 311" d="M4365.653,368.741a3.516,3.516,0,0,1,1.53-1.2,5.678,5.678,0,0,1,2.218-.405v2.917q-.527-.041-.709-.041a2.9,2.9,0,0,0-2.127.76,3.071,3.071,0,0,0-.77,2.279V378.2h-3.161V367.3h3.019Z" transform="translate(-4218.936 -355.048)" fill="#fff"/>
    <g id="Group_100" data-name="Group 100" transform="translate(0 0)">
      <circle id="Ellipse_33" data-name="Ellipse 33" cx="15.264" cy="15.264" r="15.264" transform="translate(0 0)" fill="#ff5725"/>
      <path id="Path_312" data-name="Path 312" d="M221.937,262h-4.7v-2.236a1.315,1.315,0,0,0-1.314-1.314h-8.295a1.315,1.315,0,0,0-1.314,1.314v8.567a.819.819,0,0,0,1.4.579l1.888-1.888h2.727v2.236a1.315,1.315,0,0,0,1.314,1.314h6.321l1.888,1.888a.82.82,0,0,0,1.4-.579v-8.567A1.315,1.315,0,0,0,221.937,262Zm-9.609,1.314v2.559h-2.863a.816.816,0,0,0-.579.24l-1.422,1.422v-7.771a.165.165,0,0,1,.165-.165h8.294a.165.165,0,0,1,.165.165V262h-2.445a1.316,1.316,0,0,0-1.315,1.314Zm3.76-.165v2.559a.165.165,0,0,1-.165.165h-2.446v-2.559a.165.165,0,0,1,.165-.165Zm6.013,7.936-1.422-1.422a.816.816,0,0,0-.579-.24h-6.458a.165.165,0,0,1-.165-.165V267.02h2.446a1.315,1.315,0,0,0,1.314-1.314v-2.559h4.7a.165.165,0,0,1,.165.165Z" transform="translate(-199.519 -249.935)" fill="#fff"/>
    </g>
  </g>
</svg>
