<svg xmlns="http://www.w3.org/2000/svg" width="29" height="28.999" viewBox="0 0 29 28.999">
  <path id="Subtraction_16" data-name="Subtraction 16" d="M6006.5,8229a14.5,14.5,0,1,1,10.252-4.247A14.407,14.407,0,0,1,6006.5,8229Zm-1.118-24.166c-1.226,0-2.927.953-4.669,2.614a14.82,14.82,0,0,0-3.577,5.048c-.479,1.309-.386,2.292.268,2.845l.638.541a3.185,3.185,0,0,0-.178,1.454,2.871,2.871,0,0,0,.987,1.838,2.987,2.987,0,0,0,1.931.781h.006a6.937,6.937,0,0,0,2.675,3.115,8.118,8.118,0,0,0,4.109,1.213c.1,0,.195,0,.292,0a7.089,7.089,0,0,0,6.875-4.2,5.808,5.808,0,0,0,.392-1.838c0-.755-.418-1.095-.714-1.095-.006-.023-.061-.227-.138-.476l-.155-.415a1.493,1.493,0,0,0,.269-1.092,1.389,1.389,0,0,0-.4-.783,3.309,3.309,0,0,0-1.418-.7l-.361-.1s0-.014,0-.033l0-.181c0-.211-.017-.73-.029-1a4.06,4.06,0,0,0-.159-1.065,2.829,2.829,0,0,0-.737-1.32,4.421,4.421,0,0,0,1.46-2.846c0-1.065-.818-1.7-2.185-1.7a6.584,6.584,0,0,0-2.464.555l-.543.229-.31-.3-.188-.185-.375-.367-.124-.121A1.722,1.722,0,0,0,6005.382,8204.834Zm3.992,17.538a3.928,3.928,0,0,1-3.727-2.145,3.01,3.01,0,0,1-.155-.424,3.717,3.717,0,0,1,.818-3.483.321.321,0,0,0,.107-.209.374.374,0,0,0-.083-.2,3.162,3.162,0,0,0-.25-.3,2.721,2.721,0,0,1-.89-2.341,1.993,1.993,0,0,1,1.834-1.732c.025,0,.047,0,.072,0l.215.013c.185.011.36.027.523.044s.316.032.468.039l.145,0a1.932,1.932,0,0,0,1.354-.5l.029-.024a1.084,1.084,0,0,1,.545-.3l.015,0a.634.634,0,0,1,.163-.02h.042a.741.741,0,0,1,.37.118c.407.272.488.909.514,1.5.012.246.049.99.062,1.2.027.466.153.528.393.606.123.04.24.073.391.116l.065.019a2.571,2.571,0,0,1,1.124.533.7.7,0,0,1,.207.4c.076.551-.5,1.154-1.572,1.654a7.926,7.926,0,0,1-3.229.675,6.672,6.672,0,0,1-.738-.039l-.382-.041a.909.909,0,0,0-.125-.009.891.891,0,0,0-.792.508,1.26,1.26,0,0,0,.071,1.283,2.749,2.749,0,0,0,2.175.824,5.684,5.684,0,0,0,4.329-1.682l.049-.067a.051.051,0,0,0,.01-.046.017.017,0,0,0-.016-.008.047.047,0,0,0-.027.01,7.912,7.912,0,0,1-4.126,1.349,5.285,5.285,0,0,1-.89-.074,3.16,3.16,0,0,1-.543-.148c-.421-.165-.653-.408-.69-.723a5.736,5.736,0,0,0,1.688.269,3.636,3.636,0,0,0,1.385-.235.059.059,0,0,0,.035-.061.054.054,0,0,0-.019-.037.069.069,0,0,0-.035-.011h-.013a6.9,6.9,0,0,1-3-.309.439.439,0,0,1,.483-.354,3.063,3.063,0,0,1,.384.036l.022,0c.105.014.214.028.333.037.169.011.346.016.528.016a8.933,8.933,0,0,0,2.421-.336,6.744,6.744,0,0,0,2.208-1.1,4.5,4.5,0,0,1,.307,1.05l0,0h0c.012,0,.034,0,.063,0a.488.488,0,0,1,.251.065c.11.067.248.217.171.723a4,4,0,0,1-1.122,2.206,4.613,4.613,0,0,1-1.349,1.01,5.7,5.7,0,0,1-.88.371A5.551,5.551,0,0,1,6009.375,8222.372Zm.473-7.44a.244.244,0,0,0-.23.12.21.21,0,0,0-.006.162.4.4,0,0,0,.2.216.421.421,0,0,0,.192.048.246.246,0,0,0,.229-.12.315.315,0,0,0-.2-.38A.421.421,0,0,0,6009.847,8214.932Zm1.061-.462c-.136,0-.249.153-.25.341a.4.4,0,0,0,.1.28.205.205,0,0,0,.146.068c.141,0,.256-.153.258-.341s-.108-.347-.246-.349Zm-3.018.144h0a.947.947,0,0,0-.479.2.307.307,0,0,0-.122.192l.019.045.041.017a.636.636,0,0,0,.177-.049l.008,0a1.61,1.61,0,0,1,.562-.1,1.553,1.553,0,0,1,.25.02l.033,0c.041,0,.072.007.1.007.044,0,.068-.01.082-.033a.071.071,0,0,0-.006-.08.7.7,0,0,0-.549-.222.982.982,0,0,0-.11.007Zm-.281-.384a1.645,1.645,0,0,1,.671.163l.012.006a.988.988,0,0,0,.3.1.067.067,0,0,0,.05-.017c.028-.031.02-.092-.025-.166a1.144,1.144,0,0,0-.5-.4,1.362,1.362,0,0,0-1.324.161c-.129.093-.252.227-.235.306.007.03.029.046.07.052h.01a1,1,0,0,0,.226-.058,2.78,2.78,0,0,1,.673-.146Zm2.967-1.671a.384.384,0,0,0-.054,0,.243.243,0,0,0-.171.1,1.03,1.03,0,0,0-.013.738,1.6,1.6,0,0,0,.258.619,1.6,1.6,0,0,1,.4,0,1.394,1.394,0,0,0,.021-.762C6010.914,8212.763,6010.785,8212.559,6010.577,8212.559Zm-9.789,6.681h-.052a2.37,2.37,0,0,1-2.16-1.975,1.951,1.951,0,0,1,1.533-2.278,2.032,2.032,0,0,1,.351-.032c.031,0,.062,0,.093,0a1.889,1.889,0,0,1,1.658,1.775,3.161,3.161,0,0,1-.119,1.6,1.341,1.341,0,0,1-1.052.884A1.474,1.474,0,0,1,6000.789,8219.239Zm-.529-2.953a.546.546,0,0,1,.306.092.541.541,0,0,1,.207.656,1.569,1.569,0,0,0-.107.585.583.583,0,0,0,.519.6h.021a.434.434,0,0,0,.395-.209.088.088,0,0,0-.008-.1.081.081,0,0,0-.068-.03.3.3,0,0,0-.074.013.686.686,0,0,1-.134.02h-.006a.279.279,0,0,1-.23-.122.447.447,0,0,1,.008-.409l.033-.074a1.2,1.2,0,0,0,.089-1.067.944.944,0,0,0-.723-.526.856.856,0,0,0-.115-.007.926.926,0,0,0-.68.3,1.16,1.16,0,0,0-.3.964c.027.069.068.078.081.079h.013c.024,0,.109-.012.167-.162l.012-.044.008-.023a1.262,1.262,0,0,1,.121-.275.567.567,0,0,1,.353-.242A.62.62,0,0,1,6000.259,8216.286Zm-1.91-.983h0a4.318,4.318,0,0,1-.675-.65c-.637-1.209.941-3.63,1.439-4.344a15.248,15.248,0,0,1,3.274-3.392,5.9,5.9,0,0,1,3.058-1.377,1.441,1.441,0,0,1,.38.048,5.906,5.906,0,0,1,1.037.993,20.961,20.961,0,0,0-2.848,1.967,12.989,12.989,0,0,0-4.077,5.741,2.507,2.507,0,0,0-1.587,1.014Zm5.379-4.951a.033.033,0,0,1-.031-.021.03.03,0,0,1,0-.034,8.708,8.708,0,0,1,2.418-1.979.024.024,0,0,1,.014,0,.033.033,0,0,1,.027.047,2.328,2.328,0,0,0-.226.55.035.035,0,0,0,.015.033.029.029,0,0,0,.035,0,4.745,4.745,0,0,1,2.123-.75.033.033,0,0,1,.021.06,1.808,1.808,0,0,0-.333.337.027.027,0,0,0,0,.033.033.033,0,0,0,.027.019,4.1,4.1,0,0,1,1.774.465.036.036,0,0,1,.014.042.041.041,0,0,1-.037.033h-.006a7.311,7.311,0,0,0-1.615-.178,6.757,6.757,0,0,0-1.6.186,7.33,7.33,0,0,0-2.608,1.157A.035.035,0,0,1,6003.729,8210.352Z" transform="translate(-5992.001 -8200.001)" fill="#fff"/>
</svg>
