<svg id="Group_340" data-name="Group 340" xmlns="http://www.w3.org/2000/svg" width="26.787" height="27" viewBox="0 0 26.787 27">
  <path id="Path_416" data-name="Path 416" d="M15.627-248.29c2.705.816,5.42,1.6,8.123,2.421a4.373,4.373,0,0,1,2.931,3.234,8.691,8.691,0,0,1,.1,1.908q0,6.137,0,12.274a4.381,4.381,0,0,1-3.01,4.084c-2.7.82-5.415,1.607-8.119,2.419a7.876,7.876,0,0,1-3.355.261,19.756,19.756,0,0,1-2.432-.641c-1.784-.533-3.572-1.058-5.356-1.594a8.788,8.788,0,0,1-2.659-1.035,4.426,4.426,0,0,1-1.689-2.455A9.973,9.973,0,0,1,0-229.867q0-5.755,0-11.512a4.851,4.851,0,0,1,.622-2.553A4.382,4.382,0,0,1,3.2-245.919q3.812-1.13,7.622-2.265A7.872,7.872,0,0,1,15.627-248.29Z" transform="translate(0 248.616)" fill="#fff"/>
  <path id="Path_417" data-name="Path 417" d="M66.9-172.568c1.2.367,2.408.716,3.607,1.086a1.7,1.7,0,0,0,1.046.083q2.005-.595,4.01-1.205a1.61,1.61,0,0,1,1.375.109,1.42,1.42,0,0,1,.619,1.278c.007,1.957-.005,3.916.005,5.873a1.553,1.553,0,0,1-.2.941,1.7,1.7,0,0,1-.908.507c-1.279.379-2.552.779-3.828,1.166a4.042,4.042,0,0,1-1.64.312,11.526,11.526,0,0,1-1.548-.419c-.714-.2-1.415-.443-2.134-.623-.061.749.015,1.494-.012,2.243a1.442,1.442,0,0,1-.138.541,2.518,2.518,0,0,1-.656-.073,9.912,9.912,0,0,1-1.567-.516,4.584,4.584,0,0,1-.066-.711c.011-3.078,0-6.165,0-9.244a1.412,1.412,0,0,1,.689-1.3A1.584,1.584,0,0,1,66.9-172.568Zm8.206,2.66c-1.222.172-2.374.742-3.589.948a2.275,2.275,0,0,1-.288.021h-.019a8.283,8.283,0,0,1-2.108-.5,10.394,10.394,0,0,0-1.746-.453l-.028,0a18.053,18.053,0,0,0-.047,2.044,14.025,14.025,0,0,0,.052,1.888c.943.319,1.907.569,2.855.873a3.905,3.905,0,0,0,1.009.233H71.2a1.119,1.119,0,0,0,.307-.043c.71-.187,1.4-.433,2.112-.631a13.721,13.721,0,0,0,1.414-.449,1.923,1.923,0,0,0,.111-.893c-.029-1,.042-2-.04-2.991Z" transform="translate(-57.815 180.95)" fill="#ff6e2c"/>
</svg>
