<svg xmlns="http://www.w3.org/2000/svg" width="27.578" height="26.099" viewBox="0 0 27.578 26.099">
  <g id="Group_344" data-name="Group 344" transform="translate(-324 -513.873)">
    <path id="np_graph_1807767_000000" d="M36.122,23.156a.819.819,0,0,0-.753.74V42.545a.777.777,0,0,0,.753.74h3.725a.765.765,0,0,0,.74-.74V23.9a.765.765,0,0,0-.74-.74Zm.74,1.492h2.245V41.792H36.861Zm-8.2,1.492a.817.817,0,0,0-.74.74V42.545a.775.775,0,0,0,.74.74H32.4a.775.775,0,0,0,.74-.74V26.881a.775.775,0,0,0-.74-.74Zm.753,1.492h2.232V41.792H29.412Zm-8.2,1.492a.819.819,0,0,0-.753.74V42.545a.777.777,0,0,0,.753.74h3.725a.777.777,0,0,0,.753-.74V29.866a.768.768,0,0,0-.753-.74Zm.74,1.479h2.245V41.793H21.95Zm-8.2,1.492a.819.819,0,0,0-.74.753v9.694a.775.775,0,0,0,.74.74h3.738a.775.775,0,0,0,.74-.74V32.851a.777.777,0,0,0-.74-.753ZM14.5,33.59h2.232v8.2H14.5Z" transform="translate(310.992 496.687)" fill="#fff"/>
    <path id="np_graph_1807767_000000-2" data-name="np_graph_1807767_000000" d="M28.432,15.732a.75.75,0,0,0,.7.74l2.826.45L15.409,26.272a.747.747,0,1,0,.727,1.294l16.5-9.311-.4,2.469a.751.751,0,1,0,1.479.237l.687-4.41a.789.789,0,0,0-.62-.872l-4.425-.687c-.515-.013-.911.237-.925.74Z" transform="translate(311.198 498.881)" fill="#fff"/>
  </g>
</svg>
