<svg xmlns="http://www.w3.org/2000/svg" width="29.879" height="29.88" viewBox="0 0 29.879 29.88">
  <g id="np_copy_997381_000000" transform="translate(-6 -5.997)">
    <path id="Path_693" data-name="Path 693" d="M35.274,6a.679.679,0,0,1,.6.679V32.46a.679.679,0,0,1-.679.679H27.826V35.2a.679.679,0,0,1-.679.679H6.679A.679.679,0,0,1,6,35.2V9.415a.679.679,0,0,1,.679-.679h7.385V6.677A.679.679,0,0,1,14.743,6H35.2a.694.694,0,0,1,.074,0Zm-.753,1.358h-19.1V8.736H27.147a.679.679,0,0,1,.679.679V31.781h6.7Zm-8.053,2.737H7.358V34.519H26.467Z" fill="#fff" fill-rule="evenodd"/>
    <path id="Path_696" data-name="Path 696" d="M28.789,72.3a.634.634,0,0,1,.462.2.7.7,0,0,1,0,.967.627.627,0,0,1-.462.195H13.861a.627.627,0,0,1-.462-.195.705.705,0,0,1,0-.967.634.634,0,0,1,.462-.2Z" transform="translate(-4.236 -44.5)" fill="#fff" fill-rule="evenodd"/>
    <path id="Path_705" data-name="Path 705" d="M28.789,72.3a.634.634,0,0,1,.462.2.7.7,0,0,1,0,.967.627.627,0,0,1-.462.195H13.861a.627.627,0,0,1-.462-.195.705.705,0,0,1,0-.967.634.634,0,0,1,.462-.2Z" transform="translate(-4.236 -41.654)" fill="#fff" fill-rule="evenodd"/>
    <path id="Path_697" data-name="Path 697" d="M76.055,21.664a.688.688,0,0,1,.487.2.678.678,0,0,1-.487,1.162H72.563a.679.679,0,1,1,0-1.358Z" transform="translate(-43.509 -10.347)" fill="#fff" fill-rule="evenodd"/>
    <path id="Path_698" data-name="Path 698" d="M76.14,31.656a.688.688,0,0,1,.487.2.678.678,0,0,1-.487,1.162H72.693a.679.679,0,1,1,0-1.358h3.448Z" transform="translate(-43.594 -16.947)" fill="#fff" fill-rule="evenodd"/>
    <path id="Path_699" data-name="Path 699" d="M76.055,41.754a.679.679,0,1,1,0,1.358H72.563a.679.679,0,1,1,0-1.358Z" transform="translate(-43.509 -23.616)" fill="#fff" fill-rule="evenodd"/>
    <path id="Path_700" data-name="Path 700" d="M76.137,51.434a.679.679,0,1,1,0,1.358H72.69a.679.679,0,1,1,0-1.358h3.448Z" transform="translate(-43.591 -30.01)" fill="#fff" fill-rule="evenodd"/>
    <path id="Path_701" data-name="Path 701" d="M76.055,61.527a.688.688,0,0,1,.487.2.678.678,0,0,1-.487,1.162H72.563a.679.679,0,1,1,0-1.358Z" transform="translate(-43.509 -36.676)" fill="#fff" fill-rule="evenodd"/>
    <path id="Path_702" data-name="Path 702" d="M43.673,32.445a.679.679,0,1,1,0,1.358H38.462a.679.679,0,1,1,0-1.358Z" transform="translate(-23.831 -18.891)" fill="#fff" fill-rule="evenodd"/>
    <path id="Path_704" data-name="Path 704" d="M17.876,28.266a.371.371,0,0,1,.372.372v2.752a.371.371,0,0,1-.372.372H15.125a.371.371,0,0,1-.372-.372V28.638a.371.371,0,0,1,.372-.372Z" transform="translate(-5.781 -16.131)" fill="#fff" fill-rule="evenodd"/>
    <rect id="Rectangle_1044" data-name="Rectangle 1044" width="16" height="8" rx="1" transform="translate(9 17.877)" fill="#fff"/>
  </g>
</svg>
